<?xml version="1.0" encoding="utf-8"?>
<!-- Generator: Adobe Illustrator 16.0.0, SVG Export Plug-In . SVG Version: 6.00 Build 0)  -->
<!DOCTYPE svg PUBLIC "-//W3C//DTD SVG 1.1 Tiny//EN" "http://www.w3.org/Graphics/SVG/1.1/DTD/svg11-tiny.dtd">
<svg version="1.1" baseProfile="tiny" id="Capa_1" xmlns="http://www.w3.org/2000/svg" xmlns:xlink="http://www.w3.org/1999/xlink"
	 x="0px" y="0px" width="97.519px" height="162.25px" viewBox="0 0 97.519 162.25" xml:space="preserve">
<polygon fill="#52652C" points="13.73,50.014 10.113,143.504 80.32,143.504 80.32,49.652 "/>
<polygon fill="#DEE193" points="80.32,50.014 69.463,33.652 69.463,3.375 95.519,22.441 95.519,153.336 80.32,143.504 80.32,49.652 
	"/>
<polygon fill="#FFFFFF" points="48.473,134.879 48.473,58.881 56.617,58.881 65.029,96.879 65.029,58.881 74.258,58.881 
	74.258,134.879 64.758,134.879 57.431,96.879 57.431,134.879 "/>
<polygon fill="#52652C" points="3.598,4.461 69.463,3.375 69.463,33.654 2.332,33.654 "/>
<polyline fill="#93A939" points="80.32,143.506 10.113,143.506 22.414,158.943 95.519,153.336 "/>
<polygon fill="#93A939" points="2.332,33.652 13.73,50.014 80.318,49.652 69.463,33.652 "/>
<path fill="#FFFFFF" d="M21.348,58.75v75h22v-75H21.348z M34.348,121.75h-6v-49h6V121.75z"/>
</svg>
